<svg width="24" height="24" viewBox="0 0 24 24" fill="none" xmlns="http://www.w3.org/2000/svg">
<path fill-rule="evenodd" clip-rule="evenodd" d="M12 0C15.259 0 15.6677 0.0138139 16.9476 0.0722133C18.2248 0.13047 19.0972 0.333343 19.8605 0.630008C20.6496 0.936629 21.3188 1.34695 21.9859 2.01406C22.6531 2.68123 23.0634 3.35044 23.37 4.13954C23.6667 4.90283 23.8695 5.77516 23.9278 7.05242C23.9862 8.33234 24 8.741 24 12C24 15.259 23.9862 15.6677 23.9278 16.9476C23.8695 18.2248 23.6667 19.0972 23.37 19.8605C23.0634 20.6496 22.6531 21.3188 21.9859 21.9859C21.3188 22.6531 20.6496 23.0634 19.8605 23.37C19.0972 23.6667 18.2248 23.8695 16.9476 23.9278C15.6677 23.9862 15.259 24 12 24C8.741 24 8.33234 23.9862 7.05242 23.9278C5.77516 23.8695 4.90283 23.6667 4.13954 23.37C3.35044 23.0634 2.68123 22.6531 2.01406 21.9859C1.34695 21.3188 0.936629 20.6496 0.630008 19.8605C0.333343 19.0972 0.13047 18.2248 0.0722133 16.9476C0.0138139 15.6677 0 15.259 0 12C0 8.741 0.0138139 8.33234 0.0722133 7.05242C0.13047 5.77516 0.333343 4.90283 0.630008 4.13954C0.936629 3.35044 1.34695 2.68123 2.01406 2.01406C2.68123 1.34695 3.35044 0.936629 4.13954 0.630008C4.90283 0.333343 5.77516 0.13047 7.05242 0.0722133C8.33234 0.0138139 8.741 0 12 0ZM12 2.16216C8.79587 2.16216 8.41632 2.1744 7.15097 2.23213C5.98098 2.28548 5.34559 2.48097 4.92274 2.64531C4.36261 2.863 3.96287 3.12303 3.54297 3.54297C3.12303 3.96287 2.863 4.36261 2.64531 4.92274C2.48097 5.34559 2.28548 5.98098 2.23213 7.15097C2.1744 8.41632 2.16216 8.79587 2.16216 12C2.16216 15.2041 2.1744 15.5837 2.23213 16.849C2.28548 18.019 2.48097 18.6544 2.64531 19.0773C2.863 19.6374 3.12308 20.0371 3.54297 20.457C3.96287 20.877 4.36261 21.137 4.92274 21.3547C5.34559 21.519 5.98098 21.7145 7.15097 21.7679C8.41618 21.8256 8.79563 21.8378 12 21.8378C15.2044 21.8378 15.5839 21.8256 16.849 21.7679C18.019 21.7145 18.6544 21.519 19.0773 21.3547C19.6374 21.137 20.0371 20.877 20.457 20.457C20.877 20.0371 21.137 19.6374 21.3547 19.0773C21.519 18.6544 21.7145 18.019 21.7679 16.849C21.8256 15.5837 21.8378 15.2041 21.8378 12C21.8378 8.79587 21.8256 8.41632 21.7679 7.15097C21.7145 5.98098 21.519 5.34559 21.3547 4.92274C21.137 4.36261 20.877 3.96287 20.457 3.54297C20.0371 3.12303 19.6374 2.863 19.0773 2.64531C18.6544 2.48097 18.019 2.28548 16.849 2.23213C15.5837 2.1744 15.2041 2.16216 12 2.16216ZM12 5.83784C15.4033 5.83784 18.1622 8.59671 18.1622 12C18.1622 15.4033 15.4033 18.1622 12 18.1622C8.59671 18.1622 5.83784 15.4033 5.83784 12C5.83784 8.59671 8.59671 5.83784 12 5.83784ZM12 16C14.2091 16 16 14.2091 16 12C16 9.79085 14.2091 8 12 8C9.79085 8 8 9.79085 8 12C8 14.2091 9.79085 16 12 16ZM19.8456 5.59438C19.8456 6.38968 19.2009 7.03436 18.4056 7.03436C17.6104 7.03436 16.9656 6.38968 16.9656 5.59438C16.9656 4.79909 17.6104 4.15436 18.4056 4.15436C19.2009 4.15436 19.8456 4.79909 19.8456 5.59438Z" fill="#C7A780"/>
</svg>
