<svg width="24" height="24" viewBox="0 0 24 24" fill="none" xmlns="http://www.w3.org/2000/svg">
<path fill-rule="evenodd" clip-rule="evenodd" d="M3.62412 0H20.3759C22.3774 0 24 1.62257 24 3.62412V20.3735C24 22.375 22.3774 23.9976 20.3759 23.9976H3.62412C1.62257 23.9976 0 22.375 0 20.3735V3.62412C0 1.62257 1.62257 0 3.62412 0ZM7.67903 20.1407V9.23458H4.05407V20.1407H7.67903ZM5.86703 7.74466C7.13111 7.74466 7.91795 6.90719 7.91795 5.86066C7.8944 4.79051 7.13116 3.9763 5.89103 3.9763C4.65107 3.9763 3.84023 4.79052 3.84023 5.86066C3.84023 6.90725 4.62687 7.74466 5.84339 7.74466H5.86695H5.86703ZM13.3104 20.1407H9.68543L9.68551 20.1405C9.68551 20.1405 9.73308 10.2578 9.68551 9.2344H13.3105V10.7786C13.7922 10.0354 14.6545 8.97856 16.5774 8.97856C18.9624 8.97856 20.7507 10.5372 20.7507 13.8872V20.1406H17.126V14.3061C17.126 12.84 16.6013 11.8398 15.2895 11.8398C14.2882 11.8398 13.6917 12.5143 13.4297 13.1656C13.3339 13.3986 13.3104 13.7242 13.3104 14.0502V20.1407Z" fill="#C7A780"/>
</svg>
