<svg width="304" height="220" viewBox="0 0 304 220" fill="none" xmlns="http://www.w3.org/2000/svg">
<rect x="0.5" y="0.5" width="303" height="219" fill="white" stroke="#E5E5E5"/>
<path fill-rule="evenodd" clip-rule="evenodd" d="M129.459 101.19C129.018 99.5519 127.726 98.2602 126.088 97.8191C123.095 97 111.123 97 111.123 97C111.123 97 99.1515 97 96.1586 97.7876C94.5519 98.2287 93.2287 99.5519 92.7876 101.19C92 104.183 92 110.389 92 110.389C92 110.389 92 116.627 92.7876 119.589C93.2287 121.227 94.5203 122.519 96.1586 122.96C99.183 123.779 111.123 123.779 111.123 123.779C111.123 123.779 123.095 123.779 126.088 122.991C127.726 122.55 129.018 121.258 129.459 119.62C130.246 116.627 130.246 110.421 130.246 110.421C130.246 110.421 130.278 104.183 129.459 101.19ZM107.311 116.123L117.266 110.389L107.311 104.656V116.123ZM199.997 107.774C199.776 106.703 199.398 105.947 198.894 105.475C198.39 105.002 197.666 104.75 196.784 104.75C196.09 104.75 195.429 104.939 194.83 105.349C194.232 105.727 193.759 106.262 193.444 106.892H193.413V98.0396H189.758V121.857H192.877L193.255 120.282H193.35C193.633 120.849 194.074 121.29 194.673 121.636C195.271 121.951 195.901 122.14 196.626 122.14C197.918 122.14 198.831 121.542 199.43 120.376C200.028 119.211 200.344 117.352 200.344 114.863V112.217C200.312 110.295 200.217 108.814 199.997 107.774ZM196.531 114.611C196.531 115.84 196.468 116.785 196.374 117.478C196.279 118.171 196.09 118.675 195.87 118.959C195.618 119.242 195.303 119.4 194.925 119.4C194.61 119.4 194.326 119.337 194.074 119.179C193.822 119.022 193.602 118.801 193.444 118.517V109.003C193.57 108.562 193.791 108.184 194.106 107.869C194.421 107.585 194.767 107.428 195.114 107.428C195.492 107.428 195.807 107.585 195.996 107.869C196.216 108.184 196.342 108.688 196.437 109.381C196.531 110.106 196.563 111.114 196.563 112.406V114.611H196.531ZM138.343 114.422L134.058 98.8903H137.807L139.32 105.916C139.698 107.648 139.981 109.129 140.17 110.358H140.265C140.391 109.476 140.674 108.027 141.115 105.947L142.691 98.8903H146.44L142.092 114.422V121.857H138.374V114.422H138.343ZM205.699 115.588V114.737V114.674H212.032V111.807C212.032 110.043 211.906 108.657 211.622 107.648C211.339 106.672 210.866 105.916 210.173 105.443C209.48 104.971 208.472 104.719 207.18 104.719C205.321 104.719 203.998 105.286 203.211 106.451C202.423 107.617 202.045 109.444 202.045 111.965V114.894C202.045 117.352 202.423 119.148 203.179 120.313C203.935 121.479 205.227 122.077 207.086 122.077C208.629 122.077 209.827 121.699 210.677 120.943C211.528 120.187 211.937 119.022 211.937 117.478C211.937 117.226 211.937 117.037 211.906 116.879L208.661 116.69C208.629 117.73 208.535 118.454 208.314 118.896C208.094 119.337 207.716 119.557 207.149 119.557C206.708 119.557 206.393 119.431 206.204 119.179C205.983 118.959 205.857 118.549 205.794 118.013C205.731 117.478 205.699 116.659 205.699 115.588ZM205.794 108.846C205.857 108.31 205.983 107.932 206.172 107.68C206.361 107.428 206.645 107.302 207.086 107.333C207.464 107.333 207.779 107.459 207.968 107.68C208.157 107.901 208.314 108.279 208.377 108.846C208.44 109.413 208.472 110.232 208.472 111.303V112.5H205.699V111.303C205.699 110.2 205.731 109.381 205.794 108.846ZM145.935 118.99C146.25 120.093 146.786 120.88 147.542 121.384C148.298 121.888 149.369 122.14 150.693 122.172C151.984 122.172 153.024 121.92 153.78 121.416C154.536 120.912 155.072 120.093 155.418 119.022C155.765 117.919 155.922 116.501 155.922 114.705V112.28C155.922 110.452 155.733 109.003 155.387 107.932C155.04 106.861 154.505 106.042 153.749 105.538C152.992 105.034 151.984 104.782 150.756 104.782C149.495 104.782 148.487 105.034 147.7 105.538C146.944 106.042 146.377 106.829 145.998 107.932C145.652 109.035 145.463 110.484 145.463 112.28V114.705C145.463 116.47 145.62 117.919 145.935 118.99ZM152.11 116.06C152.11 117.289 152.016 118.202 151.795 118.738C151.575 119.305 151.228 119.557 150.724 119.557C150.189 119.557 149.81 119.274 149.621 118.738C149.401 118.202 149.306 117.289 149.306 116.06V110.83C149.306 109.633 149.401 108.751 149.621 108.184C149.81 107.648 150.189 107.365 150.693 107.365C151.228 107.365 151.575 107.617 151.795 108.184C152.016 108.751 152.11 109.633 152.11 110.83V116.06ZM168.114 121.888V105.097H164.334V118.423C164.208 118.738 163.987 118.99 163.672 119.179C163.357 119.4 163.042 119.494 162.727 119.494C162.349 119.494 162.066 119.337 161.908 119.022C161.751 118.706 161.656 118.171 161.656 117.415V105.097H157.875V117.635C157.875 119.211 158.128 120.345 158.663 121.069C159.199 121.794 160.018 122.172 161.12 122.172C162.727 122.172 163.956 121.384 164.743 119.841H164.838L165.153 121.888H168.114ZM187.49 105.097V121.888H184.528L184.213 119.841H184.119C183.331 121.384 182.102 122.172 180.496 122.172C179.393 122.172 178.574 121.794 178.038 121.069C177.503 120.345 177.251 119.211 177.251 117.635V105.097H181.031V117.415C181.031 118.171 181.126 118.706 181.283 119.022C181.441 119.337 181.724 119.494 182.102 119.494C182.417 119.494 182.732 119.4 183.048 119.179C183.363 118.99 183.583 118.738 183.709 118.423V105.097H187.49ZM174.636 101.946H178.385V98.8903H167.201V101.946H170.95V121.857H174.636V101.946Z" fill="#222222"/>
</svg>
