<svg width="304" height="220" viewBox="0 0 304 220" fill="none" xmlns="http://www.w3.org/2000/svg">
<rect x="0.5" y="0.5" width="303" height="219" fill="white" stroke="#E5E5E5"/>
<path fill-rule="evenodd" clip-rule="evenodd" d="M107.568 103.91V108.062L117.491 108.057C117.186 110.347 116.414 112.024 115.241 113.197C113.793 114.644 111.535 116.237 107.568 116.237C101.454 116.237 96.6714 111.309 96.6714 105.194C96.6714 99.0794 101.454 94.1515 107.568 94.1515C110.868 94.1515 113.277 95.4485 115.055 97.1162L117.985 94.1868C115.505 91.8176 112.205 90 107.573 90C99.1994 90 92.1582 96.8206 92.1582 105.194C92.1582 113.568 99.1994 120.388 107.573 120.388C112.091 120.388 115.501 118.906 118.17 116.126C120.914 113.382 121.766 109.531 121.766 106.416C121.766 105.49 121.695 104.634 121.558 103.91H107.568ZM191.264 119.793V91.1162H187.073V119.793H191.264ZM133.25 120.393C138.658 120.393 143.066 116.241 143.066 110.607C143.066 104.934 138.658 100.822 133.25 100.822C127.841 100.822 123.433 104.934 123.433 110.607C123.433 116.241 127.841 120.393 133.25 120.393ZM133.25 104.678C136.214 104.678 138.769 107.087 138.769 110.607C138.769 114.088 136.214 116.537 133.25 116.537C130.285 116.537 127.73 114.093 127.73 110.607C127.73 107.087 130.285 104.678 133.25 104.678ZM154.426 120.393C159.835 120.393 164.242 116.241 164.242 110.607C164.242 104.934 159.835 100.822 154.426 100.822C149.017 100.822 144.61 104.938 144.61 110.607C144.61 116.241 149.017 120.393 154.426 120.393ZM154.426 104.678C157.391 104.678 159.945 107.087 159.945 110.607C159.945 114.088 157.391 116.537 154.426 116.537C151.461 116.537 148.907 114.093 148.907 110.607C148.907 107.087 151.461 104.678 154.426 104.678ZM184.536 101.418V118.981C184.536 126.207 180.274 129.159 175.236 129.159C170.494 129.159 167.639 125.987 166.563 123.393L170.304 121.835C170.97 123.428 172.602 125.307 175.232 125.307C178.457 125.307 180.455 123.318 180.455 119.572V118.165H180.305C179.344 119.351 177.491 120.388 175.152 120.388C170.26 120.388 165.777 116.126 165.777 110.643C165.777 105.119 170.26 100.822 175.152 100.822C177.486 100.822 179.339 101.859 180.305 103.01H180.455V101.418H184.536ZM180.76 110.643C180.76 107.197 178.461 104.678 175.536 104.678C172.571 104.678 170.088 107.197 170.088 110.643C170.088 114.053 172.571 116.537 175.536 116.537C178.461 116.537 180.76 114.053 180.76 110.643ZM207.597 113.828L210.932 116.051C209.855 117.644 207.261 120.388 202.779 120.388C197.22 120.388 193.069 116.091 193.069 110.603C193.069 104.784 197.255 100.818 202.298 100.818C207.376 100.818 209.86 104.859 210.672 107.043L211.117 108.154L198.036 113.572C199.038 115.535 200.595 116.537 202.779 116.537C204.967 116.537 206.485 115.46 207.597 113.828ZM197.33 110.307L206.074 106.676C205.594 105.454 204.147 104.603 202.444 104.603C200.26 104.603 197.22 106.531 197.33 110.307Z" fill="#222222"/>
</svg>
