<svg width="304" height="220" viewBox="0 0 304 220" fill="none" xmlns="http://www.w3.org/2000/svg">
<rect x="0.5" y="0.5" width="303" height="219" fill="white" stroke="#E5E5E5"/>
<path fill-rule="evenodd" clip-rule="evenodd" d="M151.632 103.857L151.632 104.055C151.634 105.415 151.635 106.57 150.937 107.796C150.347 108.841 149.407 109.483 148.367 109.483C146.941 109.483 146.105 108.397 146.105 106.793C146.105 103.628 148.942 103.053 151.632 103.053V103.857ZM155.377 112.91C155.132 113.129 154.776 113.145 154.499 112.999C153.45 112.127 153.131 111.653 152.644 110.929L152.644 110.929C152.559 110.802 152.469 110.668 152.368 110.523C150.331 112.602 148.884 113.223 146.246 113.223C143.117 113.223 140.688 111.296 140.688 107.436C140.688 104.422 142.318 102.369 144.648 101.366C146.338 100.621 148.591 100.391 150.543 100.191L150.543 100.191C150.919 100.153 151.284 100.115 151.632 100.076V99.595C151.632 99.5051 151.632 99.4136 151.633 99.3208C151.639 98.5024 151.646 97.5899 151.177 96.9049C150.728 96.2206 149.861 95.9385 149.093 95.9385C147.678 95.9385 146.419 96.6646 146.111 98.169C146.048 98.5033 145.802 98.8324 145.463 98.848L141.864 98.4615C141.561 98.3936 141.221 98.1481 141.31 97.6832C142.135 93.3163 146.084 92 149.615 92C151.423 92 153.784 92.4806 155.21 93.8491C156.871 95.4002 156.86 97.428 156.847 99.6485C156.846 99.8434 156.845 100.04 156.845 100.237V106.025C156.845 107.578 157.419 108.353 158.026 109.17L158.026 109.171C158.099 109.268 158.172 109.367 158.245 109.467C158.48 109.802 158.532 110.204 158.229 110.455C157.472 111.087 156.124 112.262 155.382 112.92L155.377 112.91ZM113.119 112.962H116.833C117.23 112.962 117.549 112.654 117.549 112.272V102.17L117.548 101.93C117.545 99.7508 117.54 96.9153 120.113 96.9153C122.482 96.9153 122.441 99.4381 122.409 101.492C122.405 101.726 122.401 101.953 122.401 102.17L122.406 112.272C122.406 112.638 122.699 112.936 123.075 112.962H126.784C127.181 112.962 127.499 112.654 127.499 112.272V102.17C127.499 102.086 127.499 101.998 127.499 101.908C127.496 100.842 127.493 99.4051 127.844 98.5189C128.225 97.5578 129.166 96.9571 130.064 96.9571C131.14 96.9571 131.971 97.3175 132.248 98.5973C132.39 99.2111 132.371 100.63 132.358 101.58V101.58V101.58C132.355 101.811 132.352 102.013 132.352 102.17V112.272C132.352 112.638 132.65 112.936 133.021 112.962H136.729C137.126 112.962 137.445 112.654 137.445 112.272L137.45 100.243C137.45 99.9494 137.455 99.6501 137.46 99.348L137.46 99.3475C137.49 97.5458 137.522 95.6402 136.515 94.267C135.476 92.8253 133.773 92.1828 132.216 92.1828C130.027 92.1828 127.985 93.3059 127.087 95.7139C126.042 93.3059 124.59 92.1828 122.265 92.1828C119.977 92.1828 118.28 93.3059 117.376 95.7139H117.308V93.2223C117.282 92.8775 116.995 92.6007 116.634 92.585H113.171C112.774 92.585 112.456 92.888 112.456 93.2693V112.33C112.482 112.669 112.764 112.936 113.119 112.962ZM161.363 95.949V93.2223C161.363 92.8096 161.677 92.5328 162.053 92.5328H174.26C174.652 92.5328 174.965 92.8149 174.965 93.2223V95.5572C174.96 95.949 174.631 96.4609 174.046 97.2705L167.72 106.302C170.071 106.245 172.552 106.595 174.683 107.796C175.164 108.068 175.294 108.465 175.331 108.856V111.766C175.331 112.163 174.892 112.628 174.432 112.387C170.677 110.418 165.688 110.204 161.536 112.408C161.112 112.638 160.668 112.178 160.668 111.781V109.018C160.668 108.574 160.674 107.817 161.118 107.143L168.446 96.6333H162.068C161.677 96.6333 161.363 96.3564 161.363 95.949ZM161.245 116.687C163.51 116.418 168.462 115.831 169.345 116.963C170.238 118.107 168.355 122.808 167.513 124.91L167.512 124.913C167.256 125.551 167.804 125.807 168.379 125.326C172.124 122.197 173.085 115.642 172.323 114.696C171.56 113.756 165.02 112.946 161.035 115.751C160.418 116.18 160.523 116.775 161.207 116.692L161.245 116.687ZM140.662 128.162C149.365 128.162 159.472 125.42 166.445 120.28C167.6 119.423 166.613 118.149 165.432 118.65C157.618 121.967 149.119 123.566 141.393 123.566C129.938 123.566 118.849 120.426 109.88 115.208C109.096 114.748 108.511 115.553 109.164 116.143C117.475 123.649 128.46 128.162 140.662 128.162ZM185.475 92.1828C190.986 92.1828 193.968 96.9153 193.968 102.933C193.968 108.747 190.672 113.359 185.475 113.359C180.063 113.359 177.117 108.626 177.117 102.729C177.117 96.7952 180.1 92.1828 185.475 92.1828ZM185.506 96.0743C182.769 96.0743 182.597 99.8039 182.597 102.128L182.597 102.214C182.596 104.577 182.595 109.431 185.475 109.431C188.353 109.431 188.489 105.419 188.489 102.975C188.489 101.366 188.421 99.4435 187.935 97.9182C187.517 96.5915 186.687 96.0743 185.506 96.0743ZM197.416 112.962H201.114C201.511 112.962 201.835 112.654 201.84 112.272V102.008C201.84 100.723 201.908 99.5637 202.431 98.3988C202.843 97.4795 203.674 96.8735 204.577 96.8735C206.945 96.8735 206.922 99.4721 206.905 101.511C206.903 101.681 206.902 101.848 206.902 102.008V112.361C206.938 112.685 207.221 112.936 207.56 112.962H211.284C211.65 112.962 211.958 112.696 212 112.361V100.363C212 98.5189 212 95.9542 211.029 94.4289C209.984 92.7835 208.359 92.1828 206.693 92.1828C204.128 92.1828 202.671 93.426 201.631 96.0325H201.563V93.1178C201.49 92.8201 201.224 92.6007 200.9 92.585H197.458C197.082 92.585 196.774 92.8566 196.742 93.2066L196.747 112.272C196.747 112.638 197.045 112.936 197.416 112.962ZM102.943 104.055C102.943 103.99 102.943 103.924 102.943 103.858V103.053C100.258 103.053 97.422 103.628 97.422 106.793C97.422 108.397 98.2526 109.483 99.6786 109.483C100.723 109.483 101.658 108.841 102.249 107.796C102.946 106.57 102.945 105.415 102.943 104.055ZM105.811 112.999C106.088 113.145 106.443 113.129 106.689 112.91L106.699 112.92C107.441 112.262 108.788 111.087 109.546 110.455C109.849 110.204 109.797 109.802 109.556 109.468C109.483 109.367 109.41 109.268 109.337 109.17C108.731 108.353 108.156 107.578 108.156 106.025V100.238C108.156 100.04 108.157 99.8436 108.159 99.6486C108.171 97.4281 108.183 95.4003 106.521 93.8493C105.095 92.4807 102.734 92.0002 100.927 92.0002C97.3959 92.0002 93.4521 93.3165 92.6216 97.6834C92.538 98.1483 92.8723 98.3938 93.1753 98.4617L96.7795 98.8482C97.1138 98.8326 97.3593 98.5035 97.422 98.1692C97.7302 96.6648 98.9943 95.9387 100.41 95.9387C101.173 95.9387 102.04 96.2208 102.494 96.9051C102.958 97.5894 102.951 98.501 102.945 99.3188C102.944 99.4123 102.943 99.5046 102.943 99.5952V100.076C102.596 100.115 102.231 100.153 101.854 100.191C99.9023 100.391 97.6499 100.621 95.9594 101.366C93.635 102.369 92 104.422 92 107.436C92 111.296 94.4342 113.223 97.5578 113.223C100.201 113.223 101.643 112.602 103.68 110.523C103.787 110.677 103.883 110.819 103.974 110.953C104.454 111.664 104.773 112.137 105.811 112.999Z" fill="#222222"/>
</svg>
