<svg width="304" height="220" viewBox="0 0 304 220" fill="none" xmlns="http://www.w3.org/2000/svg">
<rect x="0.5" y="0.5" width="303" height="219" fill="white" stroke="#E5E5E5"/>
<path d="M177.779 127.875C176.811 130.111 175.665 132.17 174.338 134.062C172.528 136.642 171.047 138.427 169.905 139.419C168.135 141.046 166.239 141.88 164.209 141.927C162.751 141.927 160.993 141.513 158.947 140.671C156.894 139.834 155.007 139.419 153.282 139.419C151.472 139.419 149.532 139.834 147.456 140.671C145.377 141.513 143.703 141.951 142.422 141.994C140.475 142.077 138.534 141.22 136.597 139.419C135.361 138.34 133.814 136.491 131.961 133.872C129.973 131.075 128.339 127.832 127.059 124.134C125.687 120.14 125 116.273 125 112.529C125 108.239 125.927 104.54 127.783 101.44C129.242 98.9503 131.183 96.9861 133.612 95.5442C136.041 94.1022 138.666 93.3674 141.493 93.3204C143.039 93.3204 145.067 93.7988 147.588 94.7391C150.101 95.6824 151.715 96.1608 152.422 96.1608C152.951 96.1608 154.744 95.6014 157.783 94.4862C160.657 93.452 163.083 93.0237 165.07 93.1924C170.454 93.627 174.5 95.7496 177.19 99.5737C172.374 102.492 169.992 106.578 170.04 111.821C170.083 115.905 171.564 119.303 174.476 122.001C175.795 123.253 177.269 124.221 178.908 124.909C178.553 125.94 178.178 126.927 177.779 127.875ZM165.429 79.2804C165.429 82.4811 164.26 85.4696 161.929 88.2357C159.116 91.5241 155.714 93.4243 152.025 93.1245C151.978 92.7405 151.951 92.3364 151.951 91.9117C151.951 88.839 153.288 85.5506 155.664 82.8619C156.85 81.5005 158.358 80.3686 160.187 79.4656C162.012 78.5761 163.739 78.0842 165.362 78C165.41 78.4279 165.429 78.8558 165.429 79.2803V79.2804Z" fill="#222222"/>
</svg>
