<svg width="24" height="18" viewBox="0 0 24 18" fill="none" xmlns="http://www.w3.org/2000/svg">
<path fill-rule="evenodd" clip-rule="evenodd" d="M21.3904 1.264C22.4184 1.54077 23.2289 2.35131 23.5057 3.37931C24.0197 5.25739 23.9999 9.17171 23.9999 9.17171C23.9999 9.17171 23.9999 13.0663 23.5057 14.9443C23.2289 15.9723 22.4184 16.7829 21.3904 17.0596C19.5123 17.5539 11.9999 17.5539 11.9999 17.5539C11.9999 17.5539 4.50739 17.5539 2.60954 17.0399C1.58154 16.7631 0.771002 15.9526 0.494232 14.9246C0 13.0663 0 9.15194 0 9.15194C0 9.15194 0 5.25739 0.494232 3.37931C0.771002 2.35131 1.60131 1.521 2.60954 1.24423C4.48763 0.75 11.9999 0.75 11.9999 0.75C11.9999 0.75 19.5123 0.75 21.3904 1.264ZM15.8549 9.15194L9.60782 12.75V5.55394L15.8549 9.15194Z" fill="#C7A780"/>
</svg>
