<svg width="32" height="37" viewBox="0 0 32 37" fill="none" xmlns="http://www.w3.org/2000/svg">
<path d="M1.06215 0C11.3898 0 21.6497 0 32 0C31.887 0.258922 31.774 0.491953 31.661 0.724983C25.4689 12.5836 19.2994 24.4423 13.1073 36.3009C12.8362 36.8188 12.565 37 12.0452 37C8.31639 36.9741 4.58757 36.9741 0.836158 36.9741C0.610169 36.9741 0.384181 36.9741 0 36.9741C6.23729 25.1414 12.4068 13.4381 18.5537 1.76067C18.4859 1.683 18.4633 1.60532 18.4407 1.60532C16.0226 1.683 13.5819 1.63121 11.1864 1.89013C9.22034 2.09727 7.59322 3.39188 6.16949 4.91952C3.9774 7.24983 2.35028 10.1239 0.655366 12.8943C0.519773 13.1274 0.361581 13.3604 0.0903941 13.5416C0.429377 9.06229 0.745762 4.55703 1.06215 0Z" fill="#222222"/>
<path d="M18.5083 36.8962C19.6608 36.3007 21.0168 35.731 22.2371 34.9284C26.5083 32.132 29.2202 27.8339 31.0507 22.7073C31.2767 22.06 31.2767 22.06 31.8642 22.1635C31.8642 27.0572 31.8642 31.9249 31.8642 36.8962C27.3445 36.8962 22.8473 36.8962 18.5083 36.8962Z" fill="#C7A780"/>
</svg>
